<?xml version="1.0" encoding="UTF-8"?>
<svg width="100pt" height="100pt" version="1.1" viewBox="0 0 100 100" xmlns="http://www.w3.org/2000/svg">
 <g>
  <path d="m46.141 2.1328c0.54297-0.47266 1.3125-0.33984 1.9688-0.28125 1.9336 0.24609 3.8477 0.72266 5.6484 1.4844 1.6172 0.71094 3.1055 1.7148 4.3906 2.9297 1.2031 1.1289 2.3086 2.3945 3.043 3.8867 0.875-1.0078 1.6094-2.1211 2.293-3.2656 0.23438-0.35547 0.49609-0.71094 0.84375-0.96094 0.58203-0.35156 1.3711-0.52344 1.9766-0.13281 0.40625 0.23047 0.5625 0.70312 0.90234 1.0078 0.90625 0.86328 1.8516 1.6875 2.8438 2.457 0.66016 0.5625 1.3125 1.1445 1.9336 1.7578 0.89453 0.84375 1.6484 1.8242 2.4141 2.7812 0.59766 0.88672 1.2148 1.7695 1.6094 2.7734 1.0938-0.89062 2.2227-1.7344 3.2461-2.707 0.34766-0.35938 0.86719-0.44922 1.3477-0.44141 0.39453-0.027344 0.78516 0.12891 1.0742 0.39453 0.72656 0.66016 1.2266 1.5156 1.7969 2.3008 0.82422 1.332 1.625 2.6953 2.0898 4.1992 0.42188 1.1211 0.59375 2.3086 0.74609 3.4922 0.14844 1.9805 0.097656 4.0273-0.55078 5.9258 0.58594-0.070313 1.1719-0.13281 1.7578-0.21094 1.1602-0.16406 2.2852-0.69141 3.4766-0.58203 0.61328 0.16797 1.25 0.55469 1.4492 1.1992 0.17188 0.47656-0.054687 0.96484-0.046875 1.4531-0.011719 1.4766 0.21094 2.9414 0.3125 4.4141 0.16016 2.2305 0.074219 4.4883-0.38672 6.6836-0.16016 0.70312-0.31641 1.4102-0.625 2.0664 1.4375 0.12891 2.8672 0.33203 4.3086 0.37109 0.46094-0.003906 0.84766 0.28906 1.1602 0.59766 0.26953 0.25391 0.46094 0.60156 0.48438 0.97266 0.035156 0.80859-0.078126 1.6133-0.24219 2.4023-0.15625 1.0586-0.48047 2.082-0.77344 3.1094-0.31641 0.91016-0.73047 1.7812-1.1836 2.6328-0.58594 1.0977-1.3867 2.0625-2.1914 3.0039-1.1602 1.2109-2.4375 2.3594-3.9648 3.0898 1.0039 0.87891 2.125 1.6172 3.2812 2.2891 0.45703 0.32813 0.96484 0.68359 1.1445 1.25 0.21094 0.5 0.24219 1.1133-0.070312 1.5859-0.23047 0.39453-0.68359 0.5625-0.99219 0.88672-0.67969 0.69922-1.3125 1.4414-1.918 2.2031-1.4805 1.8672-3.168 3.582-5.0898 5-0.87891 0.59766-1.7617 1.207-2.7539 1.6094 0.71484 0.89844 1.4141 1.8086 2.1758 2.668 0.33203 0.39453 0.78906 0.74219 0.89844 1.2773 0.074219 0.49609 0.13281 1.0586-0.16406 1.4961-0.46094 0.67578-1.1875 1.0938-1.8281 1.5742-0.79687 0.60156-1.6758 1.0742-2.543 1.5625-2.1328 1.1289-4.5312 1.7305-6.9414 1.7773-1.6016 0.046874-3.2383-0.082032-4.7617-0.60938 0.082031 0.73828 0.125 1.4805 0.28906 2.207 0.17188 0.98828 0.58203 1.9531 0.49609 2.9766-0.16406 0.80469-0.82422 1.6328-1.7227 1.5625-1.5273-0.26562-3.0703 0.035156-4.5938 0.14453-1.7227 0.14844-3.4609 0.19922-5.1797 0.019531-1.4648-0.15625-2.9453-0.39453-4.3086-0.96875-0.16406 1.4492-0.34375 2.8984-0.39453 4.3555-0.011718 0.44531-0.30078 0.8125-0.60156 1.1172-0.26172 0.27344-0.62109 0.46875-1.0078 0.47656-0.77734 0.027343-1.5586-0.074219-2.3164-0.23438-2.6328-0.44922-5.2227-1.3828-7.3711-2.9961-1.8242-1.3789-3.4688-3.0742-4.5156-5.125-0.50781 0.67969-1.0859 1.3125-1.5156 2.0469-0.5 0.75781-0.87109 1.6445-1.625 2.1914-0.5625 0.33203-1.3086 0.50781-1.9023 0.16016-0.375-0.1875-0.56641-0.57422-0.82031-0.88281-0.86328-0.91016-1.8555-1.6875-2.8359-2.4688-1.3125-1.1172-2.5898-2.2852-3.6641-3.6367-0.96484-1.168-1.8516-2.4219-2.457-3.8164-1.1602 0.91797-2.3008 1.8555-3.4062 2.8398-0.39062 0.30469-0.91406 0.30859-1.3867 0.29688-0.59766-0.042969-1.0469-0.50781-1.4062-0.94922-1.7109-2.2031-3.1562-4.6797-3.7734-7.4219-0.42188-2.0977-0.54688-4.2773-0.16406-6.3906 0.074219-0.53125 0.21484-1.0469 0.41406-1.5391-0.95703 0.10938-1.9219 0.19922-2.8555 0.43359-0.78516 0.17969-1.582 0.44922-2.3984 0.34766-0.59375-0.17578-1.2031-0.53906-1.4102-1.1562-0.16797-0.45703-0.007813-0.93359 0.023437-1.3984 0.015626-2.1055-0.42578-4.1875-0.39453-6.3008-0.042969-1.543 0.12891-3.082 0.39062-4.6016 0.17578-0.79297 0.34766-1.5938 0.68359-2.3398-1.4336-0.15234-2.8672-0.33984-4.3086-0.38672-0.35938-0.003906-0.67578-0.19922-0.94531-0.41797-0.34375-0.25781-0.63281-0.625-0.68359-1.0625-0.085938-1.0078 0.16797-2 0.32031-2.9883 0.52734-2.5938 1.5195-5.1406 3.1953-7.2109 1.3359-1.6562 2.9141-3.1797 4.8359-4.1328-0.50781-0.37891-0.99219-0.78906-1.5039-1.1641-0.70312-0.47656-1.4453-0.89062-2.1445-1.3711-0.55859-0.39453-0.91797-1.0391-0.94531-1.7227-0.027343-0.49219 0.21484-0.98828 0.61719-1.2695 0.23047-0.16406 0.46484-0.32422 0.65625-0.53125 0.48438-0.51562 0.97656-1.0273 1.4297-1.5742 0.97656-1.2734 2.0508-2.4727 3.1875-3.6055 0.375-0.37109 0.77344-0.71094 1.1914-1.0352 1.1797-1.0117 2.4766-1.9141 3.9023-2.543-0.75781-0.95703-1.4922-1.9297-2.3164-2.8281-0.27734-0.33594-0.64844-0.625-0.74609-1.0742-0.10156-0.55078-0.14844-1.1953 0.23437-1.6562 0.68359-0.80859 1.6133-1.3359 2.4648-1.9414 0.99219-0.59375 1.9688-1.2422 3.0625-1.6484 1.6367-0.71875 3.4102-1.0742 5.1914-1.1914 1.7773-0.082031 3.6094-0.003906 5.2969 0.60547-0.11719-0.76953-0.15234-1.5547-0.32813-2.3164-0.17969-0.95703-0.56641-1.8984-0.47656-2.8867 0.16016-0.60938 0.53125-1.2344 1.1523-1.4531 0.41406-0.15625 0.85547-0.042969 1.2734 0.007813 1.6016 0.0625 3.1836-0.23047 4.7773-0.32422 1.3047-0.050781 2.6133-0.12109 3.9141 0.019531 1.5938 0.16016 3.2188 0.36719 4.7031 1.0039 0.13281-1.4219 0.32422-2.8359 0.37109-4.2617-0.003906-0.55078 0.38281-1.0039 0.76172-1.3633m2.2305 2.9023c-0.11328 1.4922-0.27344 2.9844-0.5 4.4688 1.582 1.2656 2.7891 2.9883 3.4492 4.9062 0.48438 1.6719 0.50781 3.457 0.24609 5.168 2.0625 0.11719 4.1133 0.42578 6.1094 0.95703-0.039062-0.80859-0.046875-1.6211 0.011719-2.4297 0.085938-1.1719 0.51172-2.2734 0.83203-3.3906 0.14844-0.46484 0.48438-0.89453 0.39844-1.4062-0.125-1.4375-0.92578-2.7109-1.875-3.7578-1.1641-1.293-2.5312-2.4375-4.1172-3.1797-1.0547-0.55078-2.2148-0.82812-3.3516-1.1367-0.39844-0.09375-0.80078-0.14453-1.2031-0.19922m17.145 4.4258c-0.6875 1.2148-1.6211 2.2617-2.5 3.3398-0.44531 0.52734-0.73438 1.1562-1.0625 1.7578-0.42578 0.80469-0.65625 1.6875-0.93359 2.5508-0.16406 0.58203-0.27734 1.1875-0.29297 1.793-0.019531 0.92188-0.007812 1.8672 0.30859 2.7461 2.1758 0.82812 4.2461 1.9492 6.1523 3.2852 0.12109-0.25 0.23828-0.51172 0.46094-0.6875 0.73437-0.54688 1.1484-1.418 1.4453-2.2656 0.24609-0.61719-0.03125-1.3125 0.26953-1.918 0.27734-0.77734 1.2852-1.1328 2-0.73047 0.60938 0.35938 0.96484 1.0664 0.96094 1.7656 0.003906 1.5352-0.62891 3-1.4883 4.2461-0.32031 0.55859-0.82422 0.98047-1.332 1.3711 0.21094 0.18359 0.42188 0.37109 0.63281 0.5625 0.83594-0.43359 1.4766-1.1484 2.1133-1.8281 1.6445-1.9258 1.8672-4.75 1.1016-7.0938-0.26172-1.0195-0.88281-1.8867-1.4648-2.7461-0.67969-0.84766-1.3438-1.7188-2.1445-2.457-1.3125-1.3359-2.875-2.3984-4.2266-3.6914m-32.98 0.66016c0.37891 1.332 0.44922 2.7266 0.59375 4.0977 0.082032 0.94141 0.43359 1.8281 0.73438 2.7148 0.44531 0.92969 0.88281 1.8789 1.4961 2.7109 0.78516 0.91406 1.6328 1.8164 2.7266 2.3594 0.35156-0.16016 0.72656-0.32422 1.125-0.26953 0.77344 0.058594 1.4219 0.78516 1.3906 1.5625 0 0.62109-0.41797 1.207-0.99609 1.4258-1.3242 0.54688-2.5977 1.2109-3.8203 1.9609-0.52344 0.33203-1.2383 0.34766-1.7461-0.015625-0.64453-0.42188-0.86328-1.3516-0.48047-2.0156 0.27734-0.53516 0.87891-0.73438 1.3516-1.0508-0.75-0.65625-1.4375-1.3828-2.0703-2.1523-0.78516-1.1016-1.3789-2.3242-1.9336-3.5586-0.14844-0.26562-0.41016-0.44531-0.64453-0.63281-1.2539-0.82812-2.7891-1.0664-4.2656-1.1094-1.793 0-3.6094 0.26953-5.2656 0.98437-1.2344 0.48828-2.3438 1.2383-3.4414 1.9727 0.96094 1.1641 1.9102 2.3398 2.8164 3.5469 2.625-0.26953 5.4102 0.375 7.4648 2.082 0.86719 0.74609 1.6562 1.582 2.3359 2.5 0.31641-0.32031 0.71875-0.59375 1.1836-0.59766 0.78516-0.0625 1.5391 0.57422 1.6133 1.3555 0.074219 0.54297-0.17969 1.0781-0.58984 1.4258-2.2031 1.957-4.1016 4.2656-5.5664 6.8242-1.0234 1.7852-1.7891 3.707-2.4375 5.6562-0.72266 2.5664-1.1758 5.2305-1.1055 7.9023 0.03125 1.6719 0.11719 3.3516 0.48047 4.9883 0.38281 2.0781 1.0742 4.0859 1.9023 6.0273 0.375 0.79688 0.81641 1.5664 1.25 2.3359 1.832 3.293 4.4414 6.1367 7.5 8.3281 1.2148 0.92578 2.5391 1.6992 3.9102 2.3789 0.77734 0.39062 1.5664 0.76953 2.4102 1 2.4766 1.0508 5.1641 1.5547 7.8438 1.6641 0.62891 0.054687 1.2617 0.13672 1.8945 0.12109 0.9375-0.050781 1.8711-0.125 2.8086-0.20312 2.5195-0.19531 4.9766-0.89062 7.3125-1.832 0.34766-0.12109 0.57031-0.45312 0.91797-0.57031 0.30859-0.097656 0.64453-0.10937 0.92969-0.27344 3.2148-1.6328 6.1328-3.8828 8.4336-6.6641 1.832-2.0898 3.25-4.5117 4.3398-7.0625 0.17969-0.35547 0.050781-0.76953 0.20312-1.1328 0.10938-0.33984 0.44531-0.55078 0.54688-0.89844 0.32031-1.0195 0.58984-2.0586 0.82422-3.1016 0.18359-1.0469 0.3125-2.1016 0.41016-3.1602 0.050781-0.61328 0.13281-1.2305 0.097656-1.8477-0.074219-1.9375-0.14453-3.8906-0.58594-5.7852-0.33203-1.6914-0.88281-3.3281-1.5195-4.9258-0.11719-0.32812-0.41797-0.53906-0.57031-0.84375-0.15234-0.28906-0.11328-0.63281-0.27734-0.91406-2.9297-5.8789-8.1211-10.598-14.258-12.945-0.64453-0.10156-1.1836-0.49219-1.8125-0.64453-3.418-1.0508-7.0469-1.4258-10.605-1.0781-1.0547 0.09375-1.8945-1.0586-1.5469-2.043-0.53125-0.10547-1.0273-0.4375-1.2344-0.94922-0.19531-0.39453-0.066406-0.83984-0.070313-1.2539-0.066406-0.76172-0.33203-1.4961-0.67187-2.1758-0.22266-0.46094-0.71484-0.69922-0.96484-1.1406-0.40625-0.56641-0.33203-1.4297 0.20312-1.8906 0.47656-0.45703 1.2188-0.42969 1.8047-0.22656 0.80469 0.40234 1.332 1.1836 1.7695 1.9414 0.66797 1.4297 1.1758 3.0391 0.84375 4.625 0.29297-0.027344 0.58594-0.046876 0.88281-0.066407 0.32031-1.332 0.33203-2.7461 0.003906-4.082-0.29688-1.0234-0.89062-1.9297-1.5703-2.7383-0.94141-1.0195-2.1289-1.7773-3.4023-2.3047-1.3398-0.42578-2.7461-0.57812-4.1406-0.69141-0.76953-0.046875-1.5352 0.003906-2.3047 0.03125-1.4883 0.039063-2.9609 0.35547-4.457 0.32422m44.293 9.7266c-0.058594 0.14453-0.007813 0.30469-0.007813 0.45703 0.125 1.0039-0.023437 2.0195-0.19922 3.0117-0.12891 0.75781-0.4375 1.4727-0.72656 2.1836-0.79297 1.6211-2.0938 2.9336-3.5039 4.0312 1.3789 1.5234 2.5742 3.1992 3.6289 4.957 1.0469-1.1914 2.2773-2.2539 3.7188-2.9414 0.61719-0.32812 1.25-0.62891 1.8867-0.92578 0.76562-0.61719 1.1367-1.5898 1.3945-2.5156 0.60938-2.8555 0.21484-5.9219-1.1055-8.5273-0.48047-0.86719-0.98828-1.7266-1.5586-2.5391-1.168 0.94531-2.3359 1.8945-3.5273 2.8086m-59.316 6.6758c-0.73438 0.41016-1.4414 0.86719-2.0977 1.3906-0.57031 0.49609-1.1914 0.93359-1.7148 1.4844-0.58984 0.64062-1.2109 1.2539-1.7695 1.9258-0.71875 0.89062-1.418 1.7969-2.2305 2.6094 1.3047 0.74609 2.4141 1.7578 3.5859 2.6836 1.0117 0.70312 2.1289 1.2383 3.3047 1.5977 1.7617 0.58594 3.7188 0.75781 5.5039 0.17188 0.85938-2.1484 1.9609-4.1914 3.293-6.0781-0.21875-0.074219-0.44922-0.13672-0.63672-0.27344-0.30859-0.21875-0.47656-0.58203-0.79688-0.79297-0.54297-0.37109-1.1289-0.69141-1.7578-0.89844-0.60937-0.22266-1.2891 0.039062-1.8828-0.25781-0.80469-0.28125-1.1484-1.3477-0.69531-2.0586 0.35156-0.51562 0.94922-0.89062 1.5898-0.87109 1.2891-0.10547 2.5312 0.37891 3.6406 0.99219 0.85938 0.50391 1.7227 1.0938 2.2148 1.9883 0.20312-0.21875 0.40625-0.4375 0.60938-0.66016-0.23438-0.28906-0.39062-0.62891-0.64062-0.90625-0.64844-0.74609-1.3438-1.4766-2.1953-1.9922-1.0508-0.57422-2.2422-0.87109-3.4375-0.90234-1.3398-0.007812-2.6719 0.29688-3.8867 0.84766m67.043 6.4531c-0.80859 0.21484-1.6211 0.44922-2.3828 0.80078-0.73047 0.39453-1.5078 0.71484-2.1797 1.207-0.92969 0.73828-1.8164 1.5664-2.3984 2.6094 0.93359 2.168 1.6289 4.4414 2.0508 6.7656 0.27344-0.085937 0.55859-0.14062 0.84766-0.097656 0.66406 0.09375 1.3242-0.10547 1.9375-0.33984 0.44922-0.17578 0.91797-0.37109 1.2344-0.75 0.40234-0.50391 1.0703-0.84375 1.7266-0.73047 0.63672 0.10938 1.1523 0.71484 1.1367 1.3672-0.007813 0.38672-0.085938 0.78906-0.30469 1.1133-0.43359 0.63281-1.0742 1.0898-1.7266 1.4727-1.3906 0.66797-2.9453 1.1602-4.5039 0.92578 0.015624 0.28516 0.035156 0.57422 0.050781 0.85938 1.293 0.32422 2.6758 0.28906 3.9648-0.035157 2.3945-0.76562 4.2305-2.8164 5.0508-5.1484 0.34375-1.2383 0.51953-2.5156 0.61719-3.793 0.16016-2.3086-0.27734-4.5977-0.35547-6.9023-1.5547 0.4375-3.1836 0.42578-4.7656 0.67578m-74.258 9.0156c-1.0469 0.82422-1.957 1.8164-2.7227 2.9023-0.51172 0.66016-0.84375 1.4336-1.2109 2.1758-0.50781 1.2852-0.91406 2.6289-1.0742 4.0078 1.4922 0.12109 2.9844 0.28125 4.4648 0.5 0.14844-0.16016 0.29297-0.32422 0.42969-0.49219 0.60547-0.73438 1.3945-1.2852 2.1602-1.832 0.72656-0.50781 1.5586-0.81641 2.375-1.1367 1.6914-0.48438 3.4844-0.45703 5.2188-0.23047 0.11719-2.0586 0.48047-4.1016 0.99219-6.1016-0.87891 0.078125-1.7656 0.03125-2.6406-0.027344-1.2148-0.12891-2.3906-0.48828-3.5352-0.90625-0.41406-0.13281-0.80859-0.40625-1.2656-0.31641-1.1797 0.13672-2.2812 0.70312-3.1914 1.457m74.77 9.0664c-1.6133 0.49609-3.3438 0.5-5.0078 0.29688-0.16797 2.0391-0.40234 4.0859-0.97656 6.0547 1.0352-0.011718 2.082-0.058594 3.1094 0.14062 0.82031 0.13672 1.5977 0.45312 2.3984 0.67188 0.41016 0.11328 0.77734 0.35156 1.1953 0.45312 1.0703 0.015625 2.1094-0.41016 2.9922-1 1.2539-0.85938 2.3203-1.9609 3.2227-3.1797 0.70703-0.92969 1.1992-2.0039 1.6328-3.082 0.34375-1.0742 0.61719-2.1719 0.82031-3.2812-1.5078-0.13281-3.0156-0.28125-4.5078-0.51172-1.25 1.582-2.9766 2.7773-4.8789 3.4375m-70.902 0.69922c-0.63672 0.46094-1.3164 0.89063-1.7852 1.5391-0.54297 0.54688-0.9375 1.2148-1.2852 1.8984-0.41406 0.67188-0.57812 1.457-0.74219 2.2188-0.26562 1.5156-0.41797 3.0547-0.33594 4.5938 0.039063 1.6367 0.36328 3.25 0.36328 4.8906 1.4492-0.375 2.9492-0.4375 4.4297-0.61328 1.2266-0.24219 2.4297-0.64453 3.5273-1.25 0.71875-0.38672 1.4492-0.78125 2.0352-1.3594 0.71875-0.67188 1.4453-1.3789 1.8633-2.2891 0.007813-0.14062-0.070313-0.26953-0.11328-0.39844-0.83594-2.0195-1.4258-4.1367-1.8086-6.293-0.33594 0.18359-0.71484 0.3125-1.1016 0.24219-0.55469-0.097656-1.0977 0.097656-1.6289 0.23438-0.58594 0.20312-1.2109 0.42969-1.6094 0.92578-0.32812 0.36328-0.76562 0.68359-1.2695 0.70703-0.68359 0.066406-1.3594-0.44922-1.4844-1.125-0.0625-0.51953-0.007812-1.0977 0.33984-1.5195 0.75391-0.98438 1.918-1.5469 3.0664-1.9336 1.0859-0.32422 2.2578-0.58203 3.375-0.25781-0.023438-0.30078-0.039062-0.60156-0.058594-0.89844-1.918-0.44141-4.0703-0.39453-5.7773 0.6875m63.844 8.957c-0.89453 2.207-2.0234 4.3125-3.375 6.2695 0.43359 0.17188 0.67969 0.57812 1.0078 0.88672 0.58203 0.44922 1.2461 0.80469 1.957 1.0117 0.55469 0.17578 1.1562-0.046874 1.6953 0.19922 0.77734 0.21875 1.2031 1.1523 0.89062 1.8906-0.32031 0.71094-1.1172 1.1211-1.8789 1.1016-0.75781-0.019531-1.5352-0.13672-2.2344-0.44531-1.2539-0.49219-2.4727-1.2188-3.2891-2.3164-0.17969 0.20703-0.36328 0.41406-0.54688 0.61719 0.19531 0.50781 0.58984 0.88672 0.94531 1.2812 0.71875 0.74219 1.5195 1.4609 2.5195 1.7969 0.71875 0.33594 1.5195 0.41406 2.3008 0.51563 1.8086 0.050781 3.6914-0.37109 5.1797-1.4453 1.9297-1.2461 3.5586-2.9062 5.0039-4.6836 0.58203-0.73047 1.1719-1.457 1.8125-2.1367-1.3359-0.72656-2.4375-1.7891-3.6328-2.7148-0.98438-0.64062-2.043-1.1836-3.1758-1.5078-0.80859-0.26562-1.6328-0.52344-2.4922-0.55078-0.89844-0.027344-1.8164-0.03125-2.6875 0.23047m-57.027 6.3711c-0.82031 0.50781-1.6719 0.96875-2.5664 1.332-0.17578 0.078125-0.36328 0.14453-0.5 0.28906-0.58203 0.58203-0.90625 1.3633-1.1602 2.1328-0.53125 1.9844-0.41016 4.0898 0.023438 6.0859 0.46484 1.9219 1.4609 3.6562 2.5898 5.2617 0.47656-0.46484 1.0156-0.85938 1.5312-1.2773 0.66016-0.52344 1.3008-1.0742 2.0078-1.5391-0.16016-1.7383 0.003906-3.543 0.70312-5.1562 0.71875-1.9141 2.2188-3.4141 3.8242-4.6172-1.3477-1.5664-2.5859-3.2344-3.5625-5.0586-0.88672 0.92969-1.7734 1.8945-2.8906 2.5469m6.5156 6.6133c-0.48828 0.55469-0.86719 1.1914-1.1094 1.8906-0.64453 1.7305-0.57812 3.6758 0.019531 5.4102 0.28906 0.99609 0.89062 1.8633 1.4922 2.6953 0.81641 1.0742 1.7109 2.0938 2.7188 2.9883 1.1328 1.0859 2.4414 1.9648 3.5625 3.0586 0.58984-1.0039 1.3242-1.9062 2.0586-2.8047 1.4375-1.5938 2.2305-3.6602 2.6484-5.7383 0.15234-1.2188 0.19141-2.5-0.21875-3.6719-0.46875-0.1875-0.9375-0.37109-1.3906-0.59766-1.6484-0.80078-3.2695-1.6797-4.7344-2.7852-0.097657 0.25-0.19141 0.51562-0.39062 0.71094-0.23438 0.23438-0.52344 0.41797-0.70312 0.70312-0.38281 0.60547-0.76953 1.2344-0.91797 1.9492-0.11328 0.48828 0.0625 1.0078-0.14062 1.4805-0.16016 0.57031-0.69141 1.0273-1.2891 1.0391-0.92969 0.078125-1.6758-0.84375-1.6914-1.7148-0.10156-1.0859 0.21875-2.1484 0.67578-3.1211 0.54687-1.0508 1.1914-2.1172 2.2148-2.7695-0.20312-0.1875-0.41016-0.37891-0.61719-0.56641-0.85156 0.45703-1.5391 1.1406-2.1875 1.8438m37.48 2.0664c0.98828 0.90625 1.918 1.8984 2.582 3.0742 0.40234 0.74609 0.83984 1.4766 1.1328 2.2734 0.089844 0.28125 0.3125 0.48047 0.53516 0.66016 1.1172 0.89844 2.5859 1.1523 3.9805 1.2578 2.2617 0.11328 4.5664-0.30859 6.5938-1.332 0.90234-0.48828 1.8008-0.98828 2.6172-1.6133-0.97656-1.1484-1.9062-2.3398-2.8281-3.5273-0.46094-0.011719-0.92188 0.085937-1.3828 0.0625-1.6328-0.054688-3.2695-0.43359-4.7109-1.2148-1.4023-0.79297-2.5469-1.9609-3.543-3.2148-1.5312 1.3555-3.2031 2.5508-4.9766 3.5742m-9.9258 3.5469c0.21875 0.43359 0.12891 0.91406 0.10938 1.3789 0.14062 0.88281 0.375 1.7969 0.91797 2.5273 0.46484 0.41406 0.95312 0.91406 0.97656 1.5781 0.058593 0.71484-0.51953 1.4062-1.2344 1.4766-0.49219 0.023437-1.0195-0.070313-1.4141-0.38672-0.79688-0.60938-1.3281-1.4961-1.6914-2.418-0.47266-1.2188-0.81641-2.5547-0.55469-3.8594-0.28906 0.023437-0.57812 0.046875-0.86719 0.070313-0.32031 1.3398-0.32422 2.7734 0.03125 4.1094 0.77734 2.3945 2.832 4.2305 5.1797 5.0273 1.9141 0.52734 3.918 0.70703 5.8984 0.61328 1.5898-0.054688 3.168-0.32813 4.7617-0.35156-0.41406-1.4297-0.44531-2.9258-0.62109-4.3945-0.26562-1.4141-0.77734-2.7773-1.5117-4.0156-0.51562-1.0312-1.3203-1.8828-2.1719-2.6406-0.33594-0.24219-0.66016-0.5625-1.0625-0.66406-2.1797 0.85938-4.4258 1.5938-6.7461 1.9492m-13.004-0.62891c0.019531 0.57031 0.042969 1.1406 0.003906 1.7148-0.027343 1.7383-0.60156 3.4062-1.2188 5.0117-0.14062 0.48828 0.011719 1.0117 0.15234 1.4844 0.44531 1.457 1.4844 2.625 2.543 3.6719 0.90234 0.82031 1.8633 1.6016 2.9727 2.1172 1.4883 0.81641 3.1641 1.2109 4.8242 1.5039 0.12891-1.5 0.28516-3 0.50391-4.4883-0.96484-0.74609-1.7344-1.7031-2.4062-2.7109-0.84375-1.3438-1.3711-2.8906-1.418-4.4844-0.070312-0.94922 0-1.9023 0.12109-2.8477-2.0469-0.16797-4.0977-0.41016-6.0781-0.97266z"/>
  <path d="m51.242 7.4609c0.89844-0.31641 1.9688 0.37891 2.0078 1.3398 0.11719 0.875-0.66797 1.7266-1.5508 1.6797-0.79688 0.027343-1.5273-0.68359-1.5273-1.4805-0.054687-0.67969 0.42188-1.3398 1.0703-1.5391z"/>
  <path d="m54.129 10.039c0.41406-0.125 0.87891-0.14062 1.2852 0.03125 0.58203 0.20313 0.97266 0.70313 1.4297 1.0898 0.44141 0.46094 0.97656 0.87109 1.2383 1.4688 0.19922 0.60547 0.25 1.3555-0.19922 1.8672-0.50781 0.65625-1.5586 0.75-2.1836 0.21094-0.28516-0.21094-0.41016-0.55078-0.55859-0.85938-0.58594-0.75391-1.6406-1.2148-1.8164-2.2383-0.16016-0.63281 0.16797-1.3594 0.80469-1.5703z"/>
  <path d="m40.539 10.348c0.89844-0.21875 1.8711 0.52344 1.8672 1.4531 0.070312 0.82812-0.66797 1.6172-1.5 1.6055-0.82812 0.058594-1.6016-0.67969-1.5859-1.5078-0.046874-0.72266 0.51563-1.4102 1.2188-1.5508z"/>
  <path d="m69.754 15.074c0.92188-0.30078 1.9844 0.45312 1.9766 1.4258 0.070312 0.84375-0.6875 1.6367-1.5312 1.6055-0.8125 0.039062-1.5703-0.6875-1.5547-1.5039-0.042969-0.6875 0.45312-1.3438 1.1094-1.5273z"/>
  <path d="m26.352 17.566c0.8125-0.078125 1.6328-0.11328 2.4492-0.082031 0.55078 0.015625 1.0508 0.29688 1.4531 0.65625 0.55469 0.52344 0.60547 1.4688 0.125 2.0586-0.36719 0.47656-1.0273 0.69531-1.6094 0.53516-0.875-0.42969-1.8672 0.078125-2.7812-0.1875-0.59766-0.17578-1.207-0.66797-1.1953-1.3438-0.015625-0.85156 0.75781-1.5234 1.5586-1.6367z"/>
  <path d="m21.945 18.059c0.90234-0.3125 1.9648 0.38672 2.0078 1.3438 0.10938 0.875-0.67188 1.7266-1.5508 1.6797-0.79688 0.027344-1.5312-0.68359-1.5312-1.4805-0.054688-0.68359 0.42578-1.3438 1.0742-1.543z"/>
  <path d="m43.039 20.359c0.62109-0.18359 1.3398 0.054687 1.707 0.59375 0.4375 0.59766 0.35547 1.5-0.1875 2.0078-0.41016 0.41016-1.0234 0.44922-1.5547 0.59375-0.60938 0.16016-1.2969-0.082032-1.6523-0.60547-0.4375-0.59375-0.35547-1.5 0.1875-2.0039 0.39844-0.39844 0.98438-0.44141 1.5-0.58594z"/>
  <path d="m79.539 20.656c0.91016-0.25391 1.9219 0.49609 1.9141 1.4453 0.070313 0.85156-0.69922 1.6445-1.5508 1.6055-0.80859 0.027344-1.5508-0.69922-1.5312-1.5117-0.042969-0.70703 0.48438-1.3789 1.168-1.5391z"/>
  <path d="m79.828 24.633c1.0195-0.40625 2.0117 0.60938 2.0938 1.582 0.023437 0.85938 0.11719 1.7305 0.011719 2.5898-0.15234 0.79297-0.76172 1.6289-1.6367 1.6484-0.82422 0.078125-1.6133-0.62891-1.625-1.4531-0.046875-0.35156 0.125-0.66797 0.22266-0.99219 0.050781-0.79687-0.16797-1.6133 0.046875-2.4023 0.16406-0.41406 0.47266-0.79297 0.88672-0.97266z"/>
  <path d="m16.438 27.758c0.91016-0.25391 1.9258 0.49609 1.918 1.4492 0.066406 0.84766-0.70312 1.6406-1.5508 1.5977-0.80859 0.03125-1.5508-0.69531-1.5352-1.5039-0.042969-0.70703 0.48438-1.3789 1.168-1.543z"/>
  <path d="m87.129 39.133c0.90625-0.3125 1.9727 0.40234 2 1.3633 0.097656 0.85938-0.66016 1.6875-1.5273 1.6602-0.83203 0.042969-1.5977-0.71875-1.5586-1.5508-0.019531-0.66406 0.46094-1.2852 1.0859-1.4727z"/>
  <path d="m13.438 41.246c0.89844-0.21875 1.8711 0.52344 1.8672 1.4531 0.058593 0.69922-0.44531 1.3398-1.0938 1.5586-0.72266 0.48047-1.1328 1.332-1.9023 1.7539-0.64453 0.29688-1.5703 0.18359-1.9297-0.49609-0.41797-0.79688-0.082031-1.8008 0.55078-2.3828 0.74609-0.72656 1.3906-1.75 2.5078-1.8867z"/>
  <path d="m8.7422 46.254c0.89844-0.30078 1.9453 0.40234 1.9844 1.3516 0.10938 0.86328-0.65625 1.707-1.5273 1.6758-0.80859 0.039062-1.5547-0.67578-1.5547-1.4844-0.050781-0.69141 0.44141-1.3555 1.0977-1.543z"/>
  <path d="m90.145 49.957c0.90625-0.25 1.9141 0.49219 1.9102 1.4414 0.074218 0.85156-0.69922 1.6484-1.5508 1.6094-0.80859 0.027344-1.5469-0.69922-1.5352-1.5039-0.042969-0.71094 0.48828-1.3906 1.1758-1.5469z"/>
  <path d="m87.621 53.129c0.4375-0.12109 0.94531-0.14062 1.332 0.13281 0.35938 0.25781 0.54297 0.70312 0.57031 1.1367 0.0625 0.61719-0.29688 1.1875-0.70313 1.6133-0.56641 0.60156-1.0859 1.2617-1.7852 1.7148-0.75 0.40625-1.8477 0.36719-2.3477-0.41016-0.59766-0.80469-0.16016-2.082 0.80469-2.3594 0.78125-0.51562 1.1914-1.5195 2.1289-1.8281z"/>
  <path d="m11.531 57.148c0.89844-0.39063 2.0391 0.26953 2.1172 1.25 0.13281 0.85547-0.58203 1.7148-1.4492 1.7305-0.8125 0.078125-1.6016-0.61328-1.6289-1.4336-0.066406-0.65625 0.35547-1.3047 0.96094-1.5469z"/>
  <path d="m82.438 68.453c0.89844-0.30078 1.9453 0.39844 1.9883 1.3477 0.11328 0.86719-0.65625 1.7148-1.5312 1.6797-0.80469 0.035156-1.5508-0.67578-1.5508-1.4844-0.050781-0.6875 0.4375-1.3516 1.0938-1.543z"/>
  <path d="m18.926 68.844c0.70312-0.28516 1.5781 0.03125 1.9258 0.70703 0.28125 0.48438 0.20313 1.0781-0.027343 1.5664-0.097657 0.83594 0.21094 1.707-0.078125 2.5273-0.18359 0.45703-0.55469 0.875-1.0508 0.98828-0.68359 0.12891-1.4336-0.28906-1.6914-0.93359-0.28516-0.58984-0.22266-1.2617-0.26562-1.8945-0.007812-0.60547-0.078125-1.2383 0.13672-1.8164 0.22266-0.47266 0.53516-0.95703 1.0508-1.1445z"/>
  <path d="m19.344 75.574c0.89062-0.28906 1.9219 0.39062 1.9805 1.3281 0.125 0.87109-0.64062 1.7344-1.5234 1.7031-0.8125 0.039062-1.5703-0.68359-1.5547-1.5-0.046875-0.6875 0.44531-1.3398 1.0977-1.5312z"/>
  <path d="m76.938 78.156c0.91016-0.25391 1.9219 0.49219 1.918 1.4453 0.070312 0.84766-0.70312 1.6445-1.5547 1.6055-0.80859 0.027344-1.5469-0.69922-1.5312-1.5078-0.042969-0.70703 0.48438-1.3828 1.168-1.543z"/>
  <path d="m70.141 78.465c0.18359-0.050782 0.375-0.050782 0.5625-0.039063 0.31641 0.011719 0.57812 0.23828 0.89453 0.22656 0.71875 0 1.4453-0.13281 2.1602 0.007812 0.69531 0.1875 1.2891 0.90625 1.1289 1.6484-0.15234 0.74219-0.85547 1.2461-1.5742 1.3555-0.83594 0.039063-1.6758 0.10156-2.5156 0.039063-0.73828-0.085937-1.5078-0.55859-1.7461-1.293-0.25781-0.8125 0.26562-1.75 1.0898-1.9453z"/>
  <path d="m29.047 81.156c0.89844-0.30859 1.9609 0.38672 2.0039 1.3398 0.10938 0.83984-0.60547 1.6719-1.4531 1.6836-0.82812 0.082031-1.6289-0.64453-1.6289-1.4766-0.050781-0.68359 0.42969-1.3477 1.0781-1.5469z"/>
  <path d="m42.531 84.238c0.53516-0.16797 1.1602-0.039062 1.5586 0.36328 0.22656 0.19922 0.32422 0.48828 0.46484 0.74609 0.53906 0.65625 1.3555 1.0859 1.7109 1.8867 0.19141 0.48047 0.22266 1.0898-0.11328 1.5156-0.38281 0.46094-1.043 0.60938-1.6094 0.48828-0.73828-0.20312-1.2383-0.80469-1.7812-1.3047-0.30078-0.30078-0.65625-0.55469-0.87891-0.92188-0.27734-0.41406-0.42969-0.91406-0.41016-1.4102 0.023438-0.62109 0.48047-1.1758 1.0586-1.3633z"/>
  <path d="m58.445 85.863c0.91016-0.26562 1.9375 0.47656 1.9336 1.4297 0.070313 0.82031-0.64453 1.6094-1.4727 1.6094-0.83203 0.074218-1.625-0.66016-1.6094-1.4961-0.050781-0.70312 0.46875-1.375 1.1484-1.543z"/>
  <path d="m47.551 88.773c0.92188-0.30078 1.9883 0.45312 1.9805 1.4297 0.066406 0.84375-0.69141 1.6328-1.5352 1.6016-0.8125 0.039062-1.5664-0.69141-1.5508-1.5039-0.042968-0.6875 0.45313-1.3398 1.1055-1.5273z"/>
 </g>
</svg>
